<svg xmlns="http://www.w3.org/2000/svg" width="655.359" height="655.359" fill-rule="evenodd" clip-rule="evenodd" image-rendering="optimizeQuality" shape-rendering="geometricPrecision" text-rendering="geometricPrecision" viewBox="0 0 6.827 6.827"><path fill-rule="nonzero" d="M1.10402 1.17011l4.61862 0c0.0836654,0 0.159689,0.034189 0.214764,0.0892638 0.0550748,0.0550748 0.0892638,0.131098 0.0892638,0.214764l0 3.87839c0,0.0836654 -0.034189,0.159689 -0.0892638,0.214764 -0.0550748,0.0550748 -0.131098,0.0892638 -0.214764,0.0892638l-4.61862 0c-0.0836575,0 -0.159685,-0.034189 -0.21476,-0.0892638 -0.0550748,-0.0550787 -0.0892638,-0.131106 -0.0892638,-0.214764l0 -3.87839c0,-0.0836575 0.034189,-0.159685 0.0892638,-0.214764 0.0550748,-0.0550748 0.131102,-0.0892638 0.21476,-0.0892638zm4.61862 0.106669l-4.61862 0c-0.0542165,0 -0.103551,0.0222205 -0.139343,0.0580118 -0.0357913,0.0357953 -0.0580118,0.0851299 -0.0580118,0.139346l0 3.87839c0,0.0542165 0.0222205,0.103551 0.0580118,0.139346 0.0357913,0.0357913 0.085126,0.0580118 0.139343,0.0580118l4.61862 0c0.0542205,0 0.103555,-0.0222205 0.139346,-0.0580118 0.0357913,-0.0357913 0.0580118,-0.085126 0.0580118,-0.139346l0 -3.87839c0,-0.0542205 -0.0222205,-0.103555 -0.0580118,-0.139346 -0.0357913,-0.0357913 -0.085126,-0.0580118 -0.139346,-0.0580118z"/><path fill-rule="nonzero" d="M4.66322 4.12947c-0.0254252,0.0146102 -0.0341929,0.0470709 -0.0195827,0.0724961 0.0146102,0.0254252 0.0470709,0.0341929 0.0724961,0.0195827l0.0108268 -0.00625591 3.93701e-006 0.00204331c0,0.156614 -0.0634685,0.298394 -0.166083,0.401008 -0.102614,0.102614 -0.244394,0.166083 -0.401008,0.166083 -0.116465,0 -0.224512,-0.0348858 -0.314232,-0.0947244 -0.092748,-0.0618622 -0.16626,-0.15035 -0.209614,-0.254551 -0.0112756,-0.0271496 -0.0424331,-0.0400236 -0.0695827,-0.028748 -0.0271496,0.0112756 -0.0400236,0.0424331 -0.028748,0.0695827 0.0514331,0.12361 0.138677,0.22861 0.24878,0.302047 0.107094,0.0714252 0.235512,0.113063 0.373398,0.113063 0.186059,0 0.3545,-0.0754094 0.476425,-0.197335 0.121925,-0.121925 0.197335,-0.290366 0.197335,-0.476425 0,-0.0155866 -0.000594488,-0.0315512 -0.00174803,-0.0478465 -2.3622e-005,-0.000846457 -6.29921e-005,-0.00169291 -0.000125984,-0.00254331l-5.90551e-005 3.93701e-006 0 -3.93701e-006 -1.5748e-005 0c-0.00120079,-0.0161063 -0.00293701,-0.0318583 -0.00516929,-0.0472362 -0.000771654,-0.00824803 -0.00347638,-0.016437 -0.00827165,-0.0238819 -0.0159528,-0.0247598 -0.0489606,-0.0319016 -0.0737205,-0.0159488l5.90551e-005 9.44882e-005c-0.0147598,0.00950787 -0.0276142,0.0176024 -0.0382756,0.0240748 -0.0134843,0.00818504 -0.0278346,0.0166614 -0.0430866,0.0254213z"/><polygon fill-rule="nonzero" points="4.36 4.82 4.36 5.162 4.253 5.162 4.253 4.82"/><path fill-rule="nonzero" d="M3.34202 4.48496c-0.0196732,-0.0218583 -0.0533504,-0.0236299 -0.0752087,-0.00395669 -0.0218583,0.0196732 -0.0236299,0.0533504 -0.00395669,0.0752087 0.0535236,0.0593346 0.117665,0.119799 0.183484,0.18185 0.188091,0.177307 0.390921,0.36852 0.367898,0.564236 -0.00333465,0.0292244 0.0176496,0.055626 0.046874,0.0589606 0.0292244,0.00333465 0.055626,-0.0176496 0.0589606,-0.046874 0.0292244,-0.248413 -0.193902,-0.458764 -0.400819,-0.653819 -0.0637244,-0.0600748 -0.125823,-0.118614 -0.177232,-0.175606z"/><path fill-rule="nonzero" d="M4.14572 4.34207l-0.758157 0.229543 3.93701e-006 1.1811e-005c-0.00540945,0.0016378 -0.0108819,0.00237008 -0.016248,0.00229134l-0.445358 0c-0.0115591,0 -0.0222598,-0.0036811 -0.0309961,-0.00993307l-0.216287 -0.12978 -0.359303 -0.0491378 0.00708268 -0.0527087 -0.00722441 0.0528425c-0.00200394,-0.000275591 -0.0039685,-0.000661417 -0.00588583,-0.00114173 -0.0101142,-0.00174803 -0.0348819,-0.00662598 -0.0674134,-0.0171732l0.016248 -0.050626 -0.0164528 0.0507323c-0.00109055,-0.000354331 -0.00216142,-0.000744094 -0.00321654,-0.00116142 -0.0778031,-0.0257402 -0.203264,-0.0846496 -0.303961,-0.213827 -0.0673819,-0.0864449 -0.123398,-0.203909 -0.145815,-0.363067 -0.0301142,-0.213862 0.0159331,-0.400764 0.0950709,-0.55565 0.113724,-0.222575 0.296724,-0.378386 0.418118,-0.452094 0.0362008,-0.0219803 0.0702559,-0.0499055 0.106409,-0.0795551 0.153835,-0.126154 0.342756,-0.281071 0.966748,-0.269756l0 -0.00019685 0.264909 0c0.00800787,0 0.0156063,0.00176772 0.0224213,0.00493307 0.169028,0.0656299 0.308583,0.0851063 0.429008,0.10189 0.287768,0.040126 0.475614,0.0663504 0.697858,0.578728l0.000992126 0.00190551 8.66142e-005 -3.93701e-005 0.000425197 0.00101969c0.0167047,0.031874 0.131484,0.246783 0.224736,0.31098l9.44882e-005 -0.000137795c0.0150276,0.0103307 0.0231063,0.0269961 0.023122,0.0439488l0 0.000480315 0 0.421272c0,0.0055315 -0.00084252,0.0108661 -0.00240551,0.0158858 -0.00927165,0.0495197 -0.0625472,0.158685 -0.324201,0.309l-0.0264567 -0.0460394 0.0265669 0.0462441c-0.012185,0.00699606 -0.0259764,0.00864961 -0.0386575,0.00569291 -0.0305472,-0.00424409 -0.245563,-0.0275591 -0.521878,0.110583l0.000102362 0.000204724c-0.0032874,0.00164567 -0.00666535,0.00291732 -0.0100866,0.00383465zm-0.781441 0.125177l0.749315 -0.226866c0.274252,-0.135528 0.499295,-0.126319 0.564969,-0.119791 0.25548,-0.14872 0.260244,-0.202146 0.259531,-0.209311 -0.0013189,-0.00464173 -0.00202756,-0.00954724 -0.00202756,-0.0146142l0 -0.395862c-0.106488,-0.0907992 -0.217602,-0.297602 -0.235457,-0.331579 -0.00156693,-0.00242913 -0.00295669,-0.00501181 -0.00414173,-0.00775197l0.0489449 -0.021185 -0.048748 0.0210433c-0.198783,-0.459252 -0.363425,-0.482213 -0.615827,-0.517406 -0.124756,-0.0173898 -0.269098,-0.0375236 -0.446524,-0.105571l-0.255232 0 0 -7.87402e-006 -0.000980315 -3.93701e-006 3.93701e-006 -0.000200787c-0.585732,-0.0107283 -0.758004,0.130543 -0.898276,0.245575 -0.0389843,0.0319685 -0.0757008,0.0620787 -0.118906,0.088311 -0.109807,0.0666732 -0.275409,0.207756 -0.378535,0.409591 -0.0701417,0.137283 -0.110953,0.303008 -0.0842362,0.492736 0.0194843,0.138331 0.0670906,0.239035 0.124146,0.312232 0.0836929,0.107366 0.188366,0.156539 0.253425,0.178091 0.000972441,0.000255906 0.00194094,0.000535433 0.00290945,0.000850394l-3.14961e-005 9.44882e-005 3.54331e-005 1.1811e-005 -1.9685e-005 5.90551e-005c0.0258307,0.00836614 0.0439646,0.0120945 0.0517283,0.0134764 0.00111024,8.26772e-005 0.00222047,0.000192913 0.00333465,0.000346457l-1.9685e-005 0.000149606 0.366138 0.0500709c0.0083189,0.000484252 0.0166457,0.00293307 0.0242874,0.00751575l-8.66142e-005 0.000145669 0.216406 0.12985 0.423874 0zm0.781441 -0.125177c-0.0239646,0.0064252 -0.0499449,-0.00462992 -0.0614685,-0.027689"/><path fill-rule="nonzero" d="M2.08667 3.03528c-.0227795-.0185197-.0562677-.0150709-.0747874.00770866-.0185197.0227795-.0150709.0562677.00770866.0747874.0254606.0206654.0552362.0542992.0700236.105209.0156969.0540512.0149764.128173-.0231614.228713-.158945.419004.274634.346744.275874.346551.0289921-.00448425.0488583-.0316339.044374-.060626-.00448425-.0289921-.0316339-.0488583-.060626-.044374-.000720472.000110236-.253476.0422559-.160039-.204055.0474961-.125205.0470197-.22224.0256575-.295791-.0222795-.0767047-.0668937-.127173-.105024-.158122zM2.96 4.12376c.0277283-.00966142.0423701-.0399803.0327087-.0677087-.00966142-.0277283-.0399803-.0423701-.0677087-.0327087-.0488425.0171614-.116965.0462835-.167614.0883228-.0414961.0344449-.0717126.0775039-.0749134.130504-.0013622.0225039-.00225984.0481063-.00281102.0748858-.000610236.0295748-.00069685.0595354-.000484252.0875354.000114173.0293386.0239961.0530315.0533346.0529173.0293386-.000114173.0530315-.0239961.0529173-.0533346-.000200787-.0269055-.000114173-.0559449.000484252-.0850315.000468504-.0228583.00135827-.0466929.00281102-.0707205.00115748-.0191811.0159921-.0380039.0365748-.0550866.0382874-.0317795.0941024-.055311.134701-.0695748zM2.70174 3.17575c-.0292244.00356299-.0500236.0301496-.0464606.059374.00356299.0292244.0301496.0500236.059374.0464606.000503937-.0000629921.175965-.0233583.272965.0463543.023815.0171417.0570236.0117283.0741654-.0120866.0171417-.023815.0117283-.0570236-.0120866-.0741654-.131902-.0947953-.347335-.0660118-.347957-.065937zM2.6897 2.55293c-.0248504-.0157598-.0577795-.00838976-.0735394.0164606-.0157598.0248504-.00838976.0577795.0164606.0735394.0738386.0467953.143441.0998346.194768.157071.0477795.0532756.0798622.11.0839016.168004.00195669.0293386.0273307.0515394.0566693.0495827.0293386-.00195669.0515394-.0273307.0495827-.0566693-.0058622-.0841417-.0482244-.161768-.110988-.231752-.0592126-.0660276-.136303-.125189-.216854-.176236zM4.71969 4.0122c.0272677.0110433.0583307-.0021063.069374-.029374.0110433-.0272677-.0021063-.0583307-.029374-.069374-.000555118-.000224409-.196335-.0765039-.0887323-.360138.158945-.419004-.274634-.346744-.275874-.346551-.0289921.00448425-.0488583.0316339-.044374.060626.00448425.0289921.0316339.0488583.060626.044374.000720472-.000110236.253476-.0422559.160039.204055-.144795.381681.147484.496047.148315.496382zM3.75653 2.89216c-.028185.00816535-.0444134.0376457-.036248.0658307.00816535.028185.0376457.0444134.0658307.036248.0460669-.0134567.126228-.0451142.185043-.0919291.0459094-.0365512.080374-.0828701.0837874-.139465.00168504-.0278661.0026378-.0595118.00309843-.0917992.000440945-.0307205.000362205-.0611929.0000275591-.0889409-.00034252-.0293386-.0244134-.0528425-.053752-.0525-.0293386.00034252-.0528425.0244134-.0525.053752.000322835.0269528.000401575.0565591-.0000275591.086437-.000401575.0283071-.00134646.0578189-.00309843.0867992-.00129134.0214094-.0194094.0429803-.0437874.0623858-.0463346.0368819-.110992.0622638-.148374.0731811zM4.03488 3.85902c.0291063-.0036811.0497244-.0302677.0460433-.059374-.0036811-.0291063-.0302677-.0497244-.059374-.0460433-.000299213.0000354331-.104685.0139173-.199949-.0132953-.0283031-.00805118-.0577795.0083622-.0658307.0366654-.00805118.0283031.0083622.0577795.0366654.0658307.11574.033063.242083.0162598.242445.0162165zM3.94411 4.37965c.0232402.0179488.0566339.0136575.0745827-.00958268.0179488-.0232402.0136575-.0566339-.00958268-.0745827-.0451063-.0349606-.085626-.0725039-.117283-.112012-.0265748-.0331732-.0466457-.0674882-.0573858-.102425-.00862992-.0280748-.0383858-.0438386-.0664606-.0352087-.0280748.00862992-.0438386.0383858-.0352087.0664606.0149291.048563.0414961.0945945.0761417.137843.0370748.0462717.0837087.0895984.135197.129508z"/><path fill-rule="nonzero" d="M3.14355 3.05783l0.539579 0c0.0490709,0 0.0936417,0.0200394 0.125925,0.052315 0.0322756,0.0322756 0.052315,0.0768504 0.052315,0.125921l0 0.539575c0,0.0490709 -0.0200394,0.0936417 -0.052315,0.125925 -0.0322835,0.0322756 -0.0768543,0.052315 -0.125925,0.052315l-0.539579 0c-0.0490709,0 -0.0936417,-0.0200394 -0.125917,-0.0523189 -0.0322756,-0.0322756 -0.052315,-0.0768504 -0.052315,-0.125921l0 -0.539575c0,-0.0490669 0.0200394,-0.0936457 0.052315,-0.125921 0.0322756,-0.0322756 0.0768504,-0.052315 0.125917,-0.052315zm0.539579 0.106669l-0.539579 0c-0.0196181,0 -0.0375079,0.00807087 -0.0505,0.021063 -0.0129921,0.0129921 -0.021063,0.0308858 -0.021063,0.0505039l0 0.539575c0,0.019626 0.00807087,0.0375118 0.021063,0.0505039 0.0129961,0.0129961 0.0308819,0.0210669 0.0505,0.0210669l0.539579 0c0.019626,0 0.0375118,-0.00807087 0.0505079,-0.021063 0.0129921,-0.0129961 0.021063,-0.0308819 0.021063,-0.0505079l0 -0.539575c0,-0.019626 -0.00807087,-0.0375118 -0.021063,-0.0505039 -0.0129961,-0.0129921 -0.0308819,-0.021063 -0.0505079,-0.021063z"/><path fill-rule="nonzero" d="M3.5431 3.69103l-.0813976 0-.0323346-.0841575-.148047 0-.0305236.0841575-.0793268 0 .144256-.370339.0790669 0 .148307.370339zm-.137701-.146496l-.0510472-.137445-.0500079.137445.101055 0zm.175035.146496l0-.370339.0747598 0 0 .370339-.0747598 0zM5.97333 1.69317c.0294528 0 .0533346-.0238819.0533346-.0533346 0-.0294528-.0238819-.0533346-.0533346-.0533346l-1.85523 0c-.0294528 0-.0533346.0238819-.0533346.0533346 0 .0294528.0238819.0533346.0533346.0533346l1.85523 0zM.853335 2.00289c-.0294528 0-.0533346.0238819-.0533346.0533346 0 .0294528.0238819.0533346.0533346.0533346l5.12 0c.0294528 0 .0533346-.0238819.0533346-.0533346 0-.0294528-.0238819-.0533346-.0533346-.0533346l-5.12 0zM1.31274 1.37831c.0722087 0 .137594.0292795.184925.0766024.0473228.0473228.0766024.112713.0766024.184925 0 .0722087-.0292795.137594-.0766024.184925-.0473307.0473228-.112717.0766024-.184925.0766024-.0722126 0-.137602-.0292795-.184925-.0766024-.0473228-.0473307-.0766024-.112717-.0766024-.184925 0-.0722205.0292717-.137602.0766024-.184925.0473228-.0473307.112705-.0766024.184925-.0766024zm.109508.15202c-.0280197-.0280157-.0667402-.0453504-.109508-.0453504-.0427717 0-.0814921.0173307-.109508.0453504-.0280197.0280157-.0453504.0667362-.0453504.109508 0 .0427677.0173346.0814882.0453504.109508.0280157.0280157.0667402.0453504.109508.0453504.0427677 0 .0814882-.0173346.109508-.0453504.0280157-.0280197.0453504-.0667402.0453504-.109508 0-.0427677-.0173346-.0814921-.0453504-.109508zM1.99454 1.37831c.0722126 0 .137602.0292717.184925.0766024.0473228.0473228.0766024.112709.0766024.184925 0 .0722087-.0292795.137594-.0766024.184925-.0473228.0473228-.112713.0766024-.184925.0766024-.0722087 0-.137594-.0292795-.184925-.0766024-.0473228-.0473307-.0766024-.112717-.0766024-.184925 0-.0722126.0292795-.137602.0766024-.184925.0473307-.0473228.112717-.0766024.184925-.0766024zm.109508.15202c-.0280157-.0280197-.0667362-.0453504-.109508-.0453504-.0427677 0-.0814882.0173346-.109508.0453504-.0280157.0280157-.0453504.0667402-.0453504.109508 0 .0427677.0173346.0814882.0453504.109508.0280197.0280157.0667402.0453504.109508.0453504.0427677 0 .0814921-.0173346.109508-.0453504.0280157-.0280197.0453504-.0667402.0453504-.109508 0-.0427717-.0173346-.0814921-.0453504-.109508z"/><circle cx="1.116" cy="2.319" r=".076"/><circle cx="1.326" cy="2.319" r=".076"/><circle cx="1.536" cy="2.319" r=".076"/><g><circle cx="5.291" cy="5.341" r=".076"/><circle cx="5.501" cy="5.341" r=".076"/><circle cx="5.711" cy="5.341" r=".076"/></g><rect width="6.827" height="6.827" fill="none"/></svg>