<svg xmlns="http://www.w3.org/2000/svg" data-name="Layer 1" viewBox="0 0 64 64"><path d="M41 29H55a1 1 0 0 0 1-1V16h3a1 1 0 0 0 .737-1.676l-11-12a1.03 1.03 0 0 0-1.474 0l-11 12A1 1 0 0 0 37 16h3V28A1 1 0 0 0 41 29zm13-2H42V16H54zM39.273 14L48 4.479 56.727 14zM31 24V13a1 1 0 0 0-1-1H17a1 1 0 0 0-1 1v7.808l-1.929 4.821a1 1 0 0 0 1.3 1.3L20.192 25H30A1 1 0 0 0 31 24zm-2-1H20a1 1 0 0 0-.371.071L16.8 24.205l1.134-2.834A1 1 0 0 0 18 21V14H29z"/><rect width="2" height="4" x="22" y="15"/><rect width="2" height="2" x="22" y="20"/><rect width="28" height="2" x="34" y="32"/><path d="M59.258 39.293l-1.414-1.414a3.073 3.073 0 0 0-4.243 0L48.179 43.3l-5.812-5.812a1 1 0 0 0-1.413 0l-5.66 5.65a1 1 0 0 0 0 1.415L41.11 50.37l-1.651 1.651a1 1 0 0 0-.2.3l-.006 0L35.72 60.092a1 1 0 0 0 1.324 1.324l7.778-3.535 0-.006a.99.99 0 0 0 .3-.2l1.651-1.651 5.5 5.5a1 1 0 0 0 1.413 0l5.66-5.65a1 1 0 0 0 0-1.415l-5.5-5.5 5.423-5.423A3 3 0 0 0 59.258 39.293zM37.415 43.847l4.244-4.238 1.413 1.413-1.413 1.414 1.414 1.414 1.413-1.413 2.279 2.278-4.241 4.241zm1.229 14.645l1.835-4.037 2.2 2.2zm15.742-6.156l-1.412 1.413 1.414 1.414L55.8 53.75l1.415 1.415L52.971 59.4 48.18 54.613l4.241-4.241zm-9.978 3.221L41.58 52.728 52.894 41.414l2.828 2.829zM57.844 42.121l-.708.708L54.308 40l.707-.707a1.023 1.023 0 0 1 1.414 0l1.414 1.414A1 1 0 0 1 57.844 42.121zM3 49H5V61a1 1 0 0 0 1 1h8a1 1 0 0 0 1-1V49h2a1 1 0 0 0 1-1V40a5.006 5.006 0 0 0-5-5h-.382a4 4 0 1 0-5.236 0H7a5.006 5.006 0 0 0-5 5v8A1 1 0 0 0 3 49zm7-19a2 2 0 1 1-2 2A2 2 0 0 1 10 30zM4 40a3 3 0 0 1 3-3h6a3 3 0 0 1 3 3v7H15V41H13V60H11V48H9V60H7V41H5v6H4z"/></svg>