<?xml version="1.0" encoding="UTF-8"?><!DOCTYPE svg PUBLIC "-//W3C//DTD SVG 1.1//EN" "http://www.w3.org/Graphics/SVG/1.1/DTD/svg11.dtd"><svg xmlns="http://www.w3.org/2000/svg" xmlns:xlink="http://www.w3.org/1999/xlink" version="1.1" id="Layer_1" x="0px" y="0px" width="64px" height="64px" viewBox="0 0 64 64" xml:space="preserve"><path fill="#FFF" d="M44 28h-7.8l5.9-10.9c.7-.6 1.4-6.2 1.2-7.9-.1-1.6-4.3-7.3-5.6 1L23.5 27.9c-.4.2-.8.4-1.1.7l-.4.3h.1c-.8.8-1.3 2.1-1.3 3.1H16"/><path fill="#37474F" d="M20.7 33H16c-.6 0-1-.4-1-1s.4-1 1-1h3.8c.2-.9.6-1.7 1.1-2.4.1-.2.2-.4.4-.6l.4-.2c.3-.3.7-.5 1.1-.7L36.7 9.8c.6-3.4 1.7-5 3.5-5 2.1.1 3.9 2.9 4 4.3.2 1.4-.3 7-1.3 8.5l-5 9.4H44c.6 0 1 .4 1 1s-.4 1-1 1h-7.8c-.4 0-.7-.2-.9-.5-.2-.3-.2-.7 0-1l5.9-10.9c0-.1.1-.2.2-.2.5-.8 1.1-5.5.9-7-.1-.7-1.3-2.5-2.1-2.5-.4 0-1.1.7-1.5 3.5 0 .2-.1.3-.2.5L24.2 28.6c-.1.1-.2.2-.4.3-.3.1-.6.3-.9.5l-.1.1-.1.1c-.6.6-1 1.6-1 2.4 0 .6-.4 1-1 1z"/><path fill="#FFF" d="M16 54h6c0 2 2.7 4 5.1 4H44"/><path fill="#37474F" d="M44 59H27.1c-2.7 0-5.3-1.9-6-4H16c-.6 0-1-.4-1-1s.4-1 1-1h6c.5 0 1 .4 1 1 0 1.3 2.1 3 4.1 3H44c.6 0 1 .4 1 1s-.4 1-1 1z"/><path fill="#FFF" d="M44 58h9.9c1.9 0 3.4-1.6 3.4-3.5S55.8 51 53.9 51H49"/><path fill="#37474F" d="M53.9 59H44c-.6 0-1-.4-1-1s.4-1 1-1h9.9c1.3 0 2.4-1.1 2.4-2.5S55.2 52 53.9 52H49c-.6 0-1-.4-1-1s.4-1 1-1h4.9c2.5 0 4.4 2 4.4 4.5s-2 4.5-4.4 4.5z"/><g><path fill="#FFF" d="M49 50h8c1.9 0 3.4-1.6 3.4-3.5S58.9 43 57 43h-8"/><path fill="#37474F" d="M57 51h-8c-.6 0-1-.4-1-1s.4-1 1-1h8c1.3 0 2.4-1.1 2.4-2.5S58.4 44 57 44h-8c-.6 0-1-.4-1-1s.4-1 1-1h8c2.5 0 4.4 2 4.4 4.5S59.5 51 57 51z"/></g><g><path fill="#FFF" d="M49 42h9.5c1.9 0 3.4-1.6 3.4-3.5S60.5 35 58.5 35H49"/><path fill="#37474F" d="M58.5 43H49c-.6 0-1-.4-1-1s.4-1 1-1h9.5c1.3 0 2.4-1.1 2.4-2.5s-1-2.5-2.4-2.5H49c-.6 0-1-.4-1-1s.4-1 1-1h9.5c2.5 0 4.4 2 4.4 4.5S61 43 58.5 43z"/></g><g><path fill="#FFF" d="M49 34h8c1.9 0 3.4-1.1 3.4-3s-1.5-3-3.4-3H43"/><path fill="#37474F" d="M57 35h-8c-.6 0-1-.4-1-1s.4-1 1-1h8c1.1 0 2.4-.5 2.4-2s-1.3-2-2.4-2H43c-.6 0-1-.4-1-1s.4-1 1-1h14c2.6 0 4.4 1.6 4.4 4s-1.7 4-4.4 4z"/></g><g><path fill="#FFAB00" d="M2 28h8.4c3.2 0 5.6 2.3 5.6 5.4v19c0 3.2-2.5 5.5-5.6 5.5H2"/><path fill="#37474F" d="M10.4 59H2c-.6 0-1-.4-1-1s.4-1 1-1h8.4c2.6 0 4.6-1.9 4.6-4.5v-19c0-2.6-1.9-4.4-4.6-4.4H2c-.6 0-1-.4-1-1s.4-1 1-1h8.4c3.8 0 6.6 2.8 6.6 6.4v19c0 3.6-2.9 6.5-6.6 6.5z"/></g><metadata><rdf:RDF xmlns:rdf="http://www.w3.org/1999/02/22-rdf-syntax-ns#" xmlns:rdfs="http://www.w3.org/2000/01/rdf-schema#" xmlns:dc="http://purl.org/dc/elements/1.1/"><rdf:Description about="https://iconscout.com/legal#licenses" dc:title="like" dc:description="like" dc:publisher="Iconscout" dc:date="2018-01-30" dc:format="image/svg+xml" dc:language="en"><dc:creator><rdf:Bag><rdf:li>Roundicons.com</rdf:li></rdf:Bag></dc:creator></rdf:Description></rdf:RDF></metadata></svg>