<?xml version="1.0" encoding="UTF-8"?><svg xmlns="http://www.w3.org/2000/svg" xmlns:xlink="http://www.w3.org/1999/xlink" version="1.1" x="0px" y="0px" viewBox="0 0 48 48" xml:space="preserve"><style type="text/css">.st0{fill:#FFD4C3;stroke:#504B46;stroke-linecap:round;stroke-linejoin:round;stroke-miterlimit:10;} .st1{fill:#FFC258;} .st2{fill:#4F4B45;} .st3{fill:#FABFA5;} .st4{fill:none;stroke:#504B46;stroke-linecap:round;stroke-linejoin:round;stroke-miterlimit:10;} .Graphic_x0020_Style{opacity:0.15;fill:#45413C;} .st5{fill:#FFE500;} .st6{fill:#EBCB00;} .st7{fill:none;stroke:#45413C;stroke-linecap:round;stroke-linejoin:round;stroke-miterlimit:10;} .st8{fill:#FFF48C;} .st9{fill:#FFB0CA;stroke:#45413C;stroke-linecap:round;stroke-linejoin:round;stroke-miterlimit:10;} .st10{fill:#FF87AF;stroke:#45413C;stroke-linecap:round;stroke-linejoin:round;stroke-miterlimit:10;} .st11{fill:#FFFFFF;stroke:#45413C;stroke-linecap:round;stroke-linejoin:round;stroke-miterlimit:10;} .st12{opacity:0.15;fill:#45413C;} .st13{fill:#FFAA54;} .st14{fill:#FFF48C;stroke:#45413C;stroke-linecap:round;stroke-linejoin:round;stroke-miterlimit:10;} .st15{fill:#FF6242;} .st16{fill:#FF866E;} .st17{fill:#4AEFF7;stroke:#45413C;stroke-linecap:round;stroke-linejoin:round;stroke-miterlimit:10;} .st18{fill:#FFFACF;} .st19{fill:#FFFFFF;} .st20{fill:none;stroke:#45413C;stroke-linejoin:round;stroke-miterlimit:10;} .st21{fill:#FF866E;stroke:#45413C;stroke-linecap:round;stroke-linejoin:round;stroke-miterlimit:10;} .st22{fill:#DABFF5;stroke:#45413C;stroke-linejoin:round;stroke-miterlimit:10;} .st23{fill:#EDDBFF;} .st24{fill:#BF8256;stroke:#45413C;stroke-miterlimit:10;} .st25{fill:#DEA47A;} .st26{fill:#45413C;stroke:#45413C;stroke-linecap:round;stroke-linejoin:round;stroke-miterlimit:10;} .st27{fill:none;stroke:#45413C;stroke-miterlimit:10;} .st28{fill:#915E3A;} .st29{fill:#E8F4FA;} .st30{fill:#525252;stroke:#45413C;stroke-linecap:round;stroke-linejoin:round;stroke-miterlimit:10;} .st31{fill:#87898C;} .st32{fill:#656769;} .st33{fill:none;stroke:#45413C;stroke-linecap:round;stroke-miterlimit:10;} .st34{fill:#00DBA8;} .st35{fill:#00AD85;} .st36{fill:#BF8DF2;} .st37{fill:#DABFF5;} .st38{fill:#00F5BC;} .st39{fill:#4CF4FC;stroke:#45413C;stroke-linecap:round;stroke-linejoin:round;stroke-miterlimit:10;} .st40{fill:#E04122;} .st41{fill:#00B8F0;} .st42{fill:#4ACFFF;} .st43{fill:#B89558;stroke:#45413C;stroke-linecap:round;stroke-linejoin:round;stroke-miterlimit:10;} .st44{fill:#FF6242;stroke:#45413C;stroke-linecap:round;stroke-linejoin:round;stroke-miterlimit:10;} .st45{fill:#009FD9;} .st46{fill:#FFFFFF;stroke:#45413C;stroke-linejoin:round;stroke-miterlimit:10;} .st47{fill:none;stroke:#48CF3E;stroke-linecap:round;stroke-linejoin:round;stroke-miterlimit:10;} .st48{fill:none;stroke:#FF4064;stroke-linecap:round;stroke-linejoin:round;stroke-miterlimit:10;} .st49{fill:none;stroke:#FFB700;stroke-linecap:round;stroke-linejoin:round;stroke-miterlimit:10;} .st50{fill:none;stroke:#00AED9;stroke-linecap:round;stroke-linejoin:round;stroke-miterlimit:10;} .st51{fill:#F0F0F0;} .st52{fill:#8CFFE4;stroke:#45413C;stroke-linecap:round;stroke-linejoin:round;stroke-miterlimit:10;} .st53{fill:#E5FFF9;} .st54{fill:#6DD627;} .st55{fill:#46B000;} .st56{fill:#9CEB60;} .st57{fill:#E0E0E0;} .st58{fill:#DAEDF7;} .st59{fill:#C0DCEB;} .st60{fill:#ADC4D9;} .st61{fill:#ADC4D9;stroke:#45413C;stroke-linecap:round;stroke-linejoin:round;stroke-miterlimit:10;} .st62{fill:#00DFEB;stroke:#45413C;stroke-linecap:round;stroke-linejoin:round;stroke-miterlimit:10;} .st63{fill:#627B8C;stroke:#45413C;stroke-linecap:round;stroke-linejoin:round;stroke-miterlimit:10;} .st64{fill:#FF8A14;} .st65{fill:#FF8A14;stroke:#45413C;stroke-linecap:round;stroke-linejoin:round;stroke-miterlimit:10;} .st66{fill:#6DD627;stroke:#45413C;stroke-linecap:round;stroke-linejoin:round;stroke-miterlimit:10;} .st67{fill:#45413C;} .st68{fill:#8CA4B8;} .st69{fill:#00DBA8;stroke:#45413C;stroke-linecap:round;stroke-linejoin:round;stroke-miterlimit:10;} .st70{fill:#00B8F0;stroke:#45413C;stroke-linecap:round;stroke-linejoin:round;stroke-miterlimit:10;} .st71{fill:#FFE500;stroke:#45413C;stroke-linecap:round;stroke-linejoin:round;stroke-miterlimit:10;} .st72{fill:#F0F0F0;stroke:#45413C;stroke-linecap:round;stroke-linejoin:round;stroke-miterlimit:10;} .st73{fill:#525252;} .st74{fill:#E5F8FF;} .st75{fill:none;stroke:#FF6242;stroke-linecap:round;stroke-linejoin:round;stroke-miterlimit:10;} .st76{fill:url(#XMLID_10_);} .st77{fill:url(#XMLID_11_);} .st78{fill:url(#XMLID_12_);} .st79{fill:url(#XMLID_13_);} .st80{fill:#E5FEFF;stroke:#45413C;stroke-linecap:round;stroke-linejoin:round;stroke-miterlimit:10;} .st81{fill:#EBCB00;stroke:#45413C;stroke-linecap:round;stroke-linejoin:round;stroke-miterlimit:10;} .st82{fill:#BDBEC0;stroke:#45413C;stroke-linecap:round;stroke-linejoin:round;stroke-miterlimit:10;} .st83{fill:#F0D5A8;} .st84{fill:#DEBB7E;} .st85{fill:#B89558;} .st86{fill:#FFFCE5;} .st87{fill:#FF87AF;} .st88{fill:#4ACFFF;stroke:#45413C;stroke-linecap:round;stroke-linejoin:round;stroke-miterlimit:10;} .st89{fill:#BDBEC0;} .st90{fill:#FFDA8F;} .st91{fill:#FFBE3D;} .st92{fill:#FFE9BD;} .st93{fill:#FF6196;} .st94{fill:#E0366F;} .st95{fill:#E0366F;stroke:#45413C;stroke-linecap:round;stroke-linejoin:round;stroke-miterlimit:10;} .st96{fill:#45413C;stroke:#45413C;stroke-miterlimit:10;}</style><symbol id="New_Symbol_14" viewBox="-6.5 -6.5 13 13"><path class="st0" d="M0-6c2.2 0 4.1 1.5 4.7 3.5C6.3-2.5 6.4 0 5 0v1c0 2.8-2.2 5-5 5s-5-2.2-5-5V0c-1.4 0-1.3-2.5.2-2.5C-4.1-4.5-2.2-6 0-6z" fill="#FFD4C3" stroke="#504B46" stroke-linecap="round" stroke-linejoin="round" stroke-miterlimit="10"/><circle class="st1" cx="-1.6" cy="-0.1" r="0.1" fill="#FFC258"/><path class="st2" d="M-1.6.5c-.3 0-.6-.3-.6-.6s.2-.7.6-.7c.3 0 .6.3.6.7s-.3.6-.6.6z" fill="#4F4B45"/><circle class="st1" cx="1.6" cy="-0.1" r="0.1" fill="#FFC258"/><path class="st2" d="M1.6.5C1.3.5 1 .2 1-.1s.3-.6.6-.6.6.3.6.6-.2.6-.6.6z" fill="#4F4B45"/><circle class="st3" cx="-3" cy="-1.5" r="0.5" fill="#FABFA5"/><circle class="st3" cx="3" cy="-1.5" r="0.5" fill="#FABFA5"/><path class="st4" d="M-1.2-3c.8-.5 1.7-.5 2.5 0" fill="none" stroke="#504B46" stroke-linecap="round" stroke-linejoin="round" stroke-miterlimit="10"/></symbol><g id="Icons"><g id="XMLID_735_"><ellipse id="XMLID_72_" class="st12" cx="24.8" cy="45.5" rx="9.5" ry="1.5" fill="#45413C" opacity="0.15"/><path id="XMLID_2312_" class="st5" d="M33.5 23v0l-.9-.9c-1.4-.8-4.4-1.4-7.9-1.4s-6.5.6-7.9 1.4c-.3.3-.6.5-.8.8v0c-1.8 2.1-2.9 4.8-2.9 7.8 0 6.5 5.3 11.7 11.7 11.7 6.5 0 11.7-5.3 11.7-11.7-.1-2.9-1.2-5.6-3-7.7z" fill="#FFE500"/><path id="XMLID_2311_" class="st6" d="M33.5 23v0l-.9-.9c-.4-.2-.9-.4-1.5-.6 2.6 2 4.2 5 4.2 8.5 0 5.9-4.8 10.7-10.7 10.7C18.8 40.7 14 35.9 14 30c0-3.5 1.7-6.5 4.2-8.5-.6.2-1.1.4-1.5.6-.3.3-.6.5-.8.8v0C14.1 25 13 27.7 13 30.7c0 6.5 5.3 11.7 11.7 11.7 6.5 0 11.7-5.3 11.7-11.7 0-2.9-1.1-5.6-2.9-7.7z" fill="#EBCB00"/><path id="XMLID_2310_" class="st7" d="M33.5 23v0l-.9-.9c-1.4-.8-4.4-1.4-7.9-1.4s-6.5.6-7.9 1.4c-.3.3-.6.5-.8.8v0c-1.8 2.1-2.9 4.8-2.9 7.8 0 6.5 5.3 11.7 11.7 11.7 6.5 0 11.7-5.3 11.7-11.7-.1-2.9-1.2-5.6-3-7.7z" fill="none" stroke="#45413C" stroke-linecap="round" stroke-linejoin="round" stroke-miterlimit="10"/><ellipse id="XMLID_2308_" class="st13" cx="31.7" cy="33.7" rx="1.5" ry="0.9" fill="#FFAA54"/><ellipse id="XMLID_2307_" class="st13" cx="17.7" cy="33.7" rx="1.5" ry="0.9" fill="#FFAA54"/><ellipse id="XMLID_2306_" class="st26" cx="19.6" cy="28.7" rx="0.9" ry="1.3" fill="#45413C" stroke="#45413C" stroke-linecap="round" stroke-linejoin="round" stroke-miterlimit="10"/><ellipse id="XMLID_71_" class="st26" cx="29.8" cy="28.7" rx="0.9" ry="1.3" fill="#45413C" stroke="#45413C" stroke-linecap="round" stroke-linejoin="round" stroke-miterlimit="10"/><circle id="XMLID_70_" class="st10" cx="24.7" cy="36.3" r="2.6" fill="#FF87AF" stroke="#45413C" stroke-linecap="round" stroke-linejoin="round" stroke-miterlimit="10"/><circle id="XMLID_69_" class="st72" cx="39.3" cy="19.6" r="1.8" fill="#F0F0F0" stroke="#45413C" stroke-linecap="round" stroke-linejoin="round" stroke-miterlimit="10"/><path id="XMLID_68_" class="st72" d="M11.2 18.2c-.5.1-.8.4-.9.9-.3-.2-.7-.3-1.1-.3C8 18.8 7 19.8 7 21c0 1.2 1 2.2 2.2 2.2s2.2-1 2.2-2.2c0-.2 0-.4-.1-.6h.3c.6-.1 1-.7.9-1.3-.1-.6-.7-1-1.3-.9z" fill="#F0F0F0" stroke="#45413C" stroke-linecap="round" stroke-linejoin="round" stroke-miterlimit="10"/><ellipse id="XMLID_67_" class="st81" cx="24.7" cy="23.2" rx="8.8" ry="2.5" fill="#EBCB00" stroke="#45413C" stroke-linecap="round" stroke-linejoin="round" stroke-miterlimit="10"/><path id="XMLID_66_" class="st82" d="M19.7 17.2s.6 1.4.6 3.5c0 2.2-1 4.4-1 4.4s2.3.5 5.4.5 5.4-.5 5.4-.5-1-2.3-1-4.5.6-3.5.6-3.5" fill="#BDBEC0" stroke="#45413C" stroke-linecap="round" stroke-linejoin="round" stroke-miterlimit="10"/><path id="XMLID_65_" class="st51" d="M38.5 11.5c0-1.7-1.5-3.2-3.8-4.3v-.3c0-1.6-1.3-2.9-2.9-2.9-.4 0-.8.1-1.2.3-1.2-2-3.4-3.3-5.9-3.3-2.5 0-4.7 1.3-5.9 3.2-.4-.2-.8-.3-1.2-.3-1.6 0-2.9 1.3-2.9 2.9v.3c-2.3 1.1-3.8 2.6-3.8 4.3 0 1.6 1.3 3.1 3.5 4.2.6 2.2 2.5 3.8 4.9 3.8 1.5 0 2.9-.7 3.8-1.7h3.4c.9 1.1 2.3 1.7 3.8 1.7 2.3 0 4.3-1.6 4.9-3.8 2-1.1 3.3-2.5 3.3-4.1z" fill="#F0F0F0"/><path id="XMLID_64_" class="st19" d="M14.7 10.5v-.3c0-1.6 1.3-2.9 2.9-2.9.4 0 .8.1 1.2.3 1.3-1.9 3.5-3.2 5.9-3.2s4.7 1.3 5.9 3.2c.4-.2.8-.3 1.2-.3 1.6 0 2.9 1.3 2.9 2.9v.3c1.5.7 2.7 1.6 3.3 2.6.3-.5.5-1.1.5-1.7 0-1.7-1.5-3.2-3.8-4.3v-.3c0-1.6-1.3-2.9-2.9-2.9-.4 0-.8.1-1.2.3C29.4 2.3 27.2 1 24.7 1S20 2.3 18.8 4.2c-.4-.2-.8-.3-1.2-.3-1.6 0-2.9 1.3-2.9 2.9v.3c-2.3 1.1-3.8 2.6-3.8 4.3 0 .6.2 1.1.5 1.7.6-.9 1.7-1.9 3.3-2.6z" fill="#FFF"/><path id="XMLID_63_" class="st7" d="M38.5 11.5c0-1.7-1.5-3.2-3.8-4.3v-.3c0-1.6-1.3-2.9-2.9-2.9-.4 0-.8.1-1.2.3-1.2-2-3.4-3.3-5.9-3.3-2.5 0-4.7 1.3-5.9 3.2-.4-.2-.8-.3-1.2-.3-1.6 0-2.9 1.3-2.9 2.9v.3c-2.3 1.1-3.8 2.6-3.8 4.3 0 1.6 1.3 3.1 3.5 4.2.6 2.2 2.5 3.8 4.9 3.8 1.5 0 2.9-.7 3.8-1.7h3.4c.9 1.1 2.3 1.7 3.8 1.7 2.3 0 4.3-1.6 4.9-3.8 2-1.1 3.3-2.5 3.3-4.1z" fill="none" stroke="#45413C" stroke-linecap="round" stroke-linejoin="round" stroke-miterlimit="10"/><path id="XMLID_62_" class="st72" d="M22.2 25.3s.6-1.5.8-4.2" fill="#F0F0F0" stroke="#45413C" stroke-linecap="round" stroke-linejoin="round" stroke-miterlimit="10"/><path id="XMLID_61_" class="st72" d="M26.8 25.7s-.4-.6-.4-2.9" fill="#F0F0F0" stroke="#45413C" stroke-linecap="round" stroke-linejoin="round" stroke-miterlimit="10"/><path id="XMLID_60_" class="st7" fill="none" stroke="#45413C" stroke-linecap="round" stroke-linejoin="round" stroke-miterlimit="10" d="M26.4 17.7v2.2"/></g></g><metadata><rdf:RDF xmlns:rdf="http://www.w3.org/1999/02/22-rdf-syntax-ns#" xmlns:rdfs="http://www.w3.org/2000/01/rdf-schema#" xmlns:dc="http://purl.org/dc/elements/1.1/"><rdf:Description about="https://iconscout.com/legal#licenses" dc:title="think,idea,face,smiley,emoji" dc:description="think,idea,face,smiley,emoji" dc:publisher="Iconscout" dc:date="2017-09-21" dc:format="image/svg+xml" dc:language="en"><dc:creator><rdf:Bag><rdf:li>Vincent Le Moign</rdf:li></rdf:Bag></dc:creator></rdf:Description></rdf:RDF></metadata></svg>