<?xml version="1.0" standalone="no"?>
<!DOCTYPE svg PUBLIC "-//W3C//DTD SVG 20010904//EN"
 "http://www.w3.org/TR/2001/REC-SVG-20010904/DTD/svg10.dtd">
<svg version="1.0" xmlns="http://www.w3.org/2000/svg"
 width="888.000000pt" height="1280.000000pt" viewBox="0 0 888.000000 1280.000000"
 preserveAspectRatio="xMidYMid meet">
<metadata>
Created by potrace 1.15, written by Peter Selinger 2001-2017
</metadata>
<g transform="translate(0.000000,1280.000000) scale(0.100000,-0.100000)"
fill="#000000" stroke="none">
<path d="M6360 12769 c-418 -109 -1503 -469 -2680 -889 -157 -56 -397 -141
-535 -190 -2192 -776 -2648 -960 -2720 -1099 -55 -108 -138 -1301 -255 -3691
-24 -487 -72 -1638 -95 -2275 -13 -379 -27 -760 -30 -845 -22 -586 -37 -1327
-41 -2075 l-5 -870 229 -245 c226 -241 319 -328 457 -427 152 -108 222 -136
394 -153 371 -37 806 36 1031 174 108 66 395 197 855 391 346 145 722 302 900
375 105 43 341 140 525 215 376 154 1854 746 2085 835 83 32 267 104 410 160
143 56 445 171 670 257 226 85 446 173 490 195 161 81 288 186 348 289 92 157
158 866 237 2562 5 119 15 314 20 432 6 118 15 313 20 433 13 276 28 589 40
860 6 116 15 309 20 427 6 118 15 312 20 430 6 118 15 312 20 430 6 118 14
311 20 428 89 1899 102 2330 79 2632 -17 235 -50 347 -120 410 -53 47 -116 62
-299 70 -187 7 -326 26 -480 65 -355 89 -646 229 -907 437 -168 134 -301 212
-437 258 -94 32 -125 31 -266 -6z m414 -269 c65 -24 14 -72 -179 -165 -196
-95 -419 -183 -1127 -444 -76 -28 -199 -73 -273 -101 -74 -27 -195 -72 -267
-99 -73 -27 -194 -72 -268 -99 -74 -28 -216 -80 -315 -117 -189 -70 -1071
-397 -1335 -495 -161 -60 -275 -102 -915 -340 -1152 -428 -1129 -421 -1206
-400 -73 20 -147 112 -163 201 -11 64 5 86 96 129 249 115 1530 558 2808 970
190 62 426 138 525 170 99 32 281 91 405 130 124 39 335 107 470 150 135 43
459 146 720 228 261 83 543 171 625 197 303 96 346 105 399 85z m358 -267 c10
-9 18 -30 18 -49 0 -28 -7 -39 -42 -64 -159 -116 -969 -463 -2088 -897 -135
-52 -312 -121 -395 -153 -1258 -489 -2471 -924 -2860 -1026 -154 -40 -267 -50
-272 -24 -7 34 55 75 223 147 465 198 2037 818 3569 1408 176 68 520 201 765
295 356 138 887 342 970 373 32 12 94 7 112 -10z m789 -422 c10 -13 19 -27 19
-33 0 -52 -1668 -640 -3570 -1256 -713 -232 -1357 -415 -1526 -435 -52 -6 -73
5 -54 28 41 50 218 123 1090 452 2077 783 3159 1150 3700 1254 64 12 132 17
208 16 106 -2 115 -4 133 -26z m606 -710 c-7 -354 -16 -604 -42 -1211 -16
-366 -22 -475 -85 -1735 -22 -440 -49 -980 -60 -1200 -119 -2375 -222 -3833
-278 -3922 -17 -27 -474 -221 -1306 -554 -608 -244 -1486 -588 -2336 -914
-691 -265 -1434 -542 -1622 -604 -54 -18 -106 -30 -116 -27 -52 17 -61 118
-33 386 53 517 83 1014 216 3540 159 3010 213 3922 265 4465 45 459 53 530 59
536 3 4 303 98 666 209 363 111 980 300 1370 420 391 120 800 245 910 279 110
33 313 94 450 136 962 293 1915 562 1939 548 6 -4 7 -140 3 -352z m-7723
-1132 c50 -17 183 -72 296 -122 356 -156 469 -184 719 -174 207 8 605 64 763
108 40 11 89 22 110 26 33 5 38 3 53 -28 42 -81 40 -389 -10 -1339 -26 -489
-69 -989 -95 -1103 -5 -22 -17 -45 -27 -51 -58 -34 -271 -110 -423 -150 -362
-95 -808 -113 -1085 -45 -105 26 -268 106 -331 163 -171 153 -204 439 -174
1526 15 565 40 1094 56 1188 7 42 27 42 148 1z m149 -3160 c111 -49 214 -83
342 -111 88 -20 129 -22 350 -22 272 -1 302 2 744 75 134 21 246 37 249 34 10
-10 -116 -2322 -153 -2790 -50 -644 -92 -834 -201 -897 -113 -66 -673 -86
-1146 -43 -212 20 -353 47 -427 83 -72 35 -180 141 -216 212 -25 50 -28 68
-38 245 -18 314 7 1357 73 3060 5 143 10 281 10 308 l0 47 162 -81 c90 -45
202 -99 251 -120z m-276 -4033 c59 -18 167 -54 238 -79 204 -72 294 -87 550
-94 201 -5 614 15 878 43 l57 6 -2 -993 -3 -993 -150 -43 c-577 -166 -858
-221 -1075 -210 -282 14 -583 164 -720 359 -86 123 -85 113 -85 668 1 471 10
706 41 1050 16 181 31 285 46 314 9 16 18 18 64 12 29 -3 102 -21 161 -40z"/>
</g>
</svg>
