<svg xmlns="http://www.w3.org/2000/svg" viewBox="0 0 64 64"><defs><linearGradient id="a" x1="29" x2="29" y1="59" y2="8" gradientUnits="userSpaceOnUse"><stop offset="0" stop-color="#fff" stop-opacity="0"/><stop offset=".1" stop-color="#e2f7fd" stop-opacity=".13"/><stop offset=".35" stop-color="#9fe5f9" stop-opacity=".44"/><stop offset=".57" stop-color="#6ad6f6" stop-opacity=".68"/><stop offset=".76" stop-color="#43ccf4" stop-opacity=".85"/><stop offset=".91" stop-color="#2cc5f3" stop-opacity=".96"/><stop offset="1" stop-color="#23c3f2"/></linearGradient></defs><path fill="url(#a)" d="M15,8V50H14l-.41,0-.21,0a2.25,2.25,0,0,0-.36.06l-.25.06a2,2,0,0,0-.35.1,4.46,4.46,0,0,0-.92.41l-.27.17L11,51V10a4,4,0,0,1,.54-2H7V59H51V8Zm10,8H45v5H25Z" opacity=".5"/><path fill="#0a3c72" d="M10,56a1,1,0,0,1-1-1v-.18a2.2,2.2,0,0,1,0-.36,1,1,0,0,1,2,.29A2.11,2.11,0,0,0,11,55,1,1,0,0,1,10,56Z"/><path fill="#0a3c72" d="M52,4H15A6,6,0,0,0,9.35,8,5.8,5.8,0,0,0,9,10V55a1,1,0,0,0,.11.45.92.92,0,0,0,.19.25A1,1,0,0,0,10,56a1,1,0,0,0,1-1c0-.08,0-.17,0-.27a2.73,2.73,0,0,1,.11-.6,2,2,0,0,1,.12-.3c0-.08.07-.16.1-.23a3.73,3.73,0,0,1,.52-.71A3,3,0,0,1,14,52H52l.3,0,.3,0a1.38,1.38,0,0,0,.29-.08A3,3,0,0,0,55,49V7A3,3,0,0,0,52,4Zm0,46H14l-.41,0-.21,0a2.25,2.25,0,0,0-.36.06l-.25.06a2,2,0,0,0-.35.1,4.46,4.46,0,0,0-.92.41l-.27.17L11,51V10a4,4,0,0,1,4-4H52a1,1,0,0,1,1,1V49A1,1,0,0,1,52,50Z"/><path fill="#0a3c72" d="M17,5V51a1,1,0,0,1-2,0V5a1,1,0,0,1,2,0Z"/><path fill="#23c3f2" d="M46 14H24a1 1 0 0 0-1 1v7a1 1 0 0 0 1 1H46a1 1 0 0 0 1-1V15A1 1 0 0 0 46 14zm-1 7H25V16H45zM44 40H26a1 1 0 0 1 0-2H44a1 1 0 0 1 0 2zM44 45H26a1 1 0 0 1 0-2H44a1 1 0 0 1 0 2z"/><path fill="#0a3c72" d="M54,48a1,1,0,0,0-1,1,1,1,0,0,1-1,1H14l-.41,0-.21,0a2.25,2.25,0,0,0-.36.06l-.25.06a2,2,0,0,0-.35.1,4.46,4.46,0,0,0-.92.41l-.27.17L11,51a4.69,4.69,0,0,0-.54.46,5.22,5.22,0,0,0-.86,1.16,2.84,2.84,0,0,0-.17.38,3.66,3.66,0,0,0-.21.53,4.14,4.14,0,0,0-.18.92.43.43,0,0,0,0,.11H9c0,.13,0,.28,0,.42H9a5,5,0,0,0,2.15,4,5.25,5.25,0,0,0,3.08,1H52a3,3,0,0,0,3-3V49A1,1,0,0,0,54,48Zm-1,9a1,1,0,0,1-1,1H14.23A3.18,3.18,0,0,1,11,55c0-.08,0-.17,0-.27a2.73,2.73,0,0,1,.11-.6,2,2,0,0,1,.12-.3c0-.08.07-.16.1-.23a3.73,3.73,0,0,1,.52-.71A3,3,0,0,1,14,52H52l.3,0,.3,0a1.38,1.38,0,0,0,.29-.08l.11,0Z"/><path fill="#0a3c72" d="M52,56H14a1,1,0,0,1,0-2H52a1,1,0,0,0,1-1,1,1,0,0,1,2,0A3,3,0,0,1,52,56Z"/></svg>