<svg xmlns="http://www.w3.org/2000/svg" id="Layer_1" enable-background="new 0 0 64 64" viewBox="0 0 64 64"><path fill="#2b2e63" d="M63.45,40.24L23.77,0.55c-0.74-0.73-1.93-0.73-2.67,0L0.56,21.1C0.2,21.45,0,21.93,0,22.43s0.2,0.98,0.56,1.33
		l39.68,39.69C40.6,63.81,41.08,64,41.58,64c0.21,0,0.44-0.04,0.65-0.12c0.69-0.25,1.17-0.88,1.22-1.62l1.35-17.47l17.47-1.34
		c0.73-0.06,1.36-0.54,1.62-1.23C64.14,41.53,63.97,40.76,63.45,40.24z M42.9,41.16c-0.93,0.07-1.66,0.81-1.73,1.74l-1.16,14.99
		L4.55,22.43L22.43,4.55L57.9,40.01L42.9,41.16z"/><path fill="#ffdc7c" d="M57.9,40.01l-15,1.15c-0.93,0.07-1.66,0.81-1.73,1.74l-1.16,14.99L4.55,22.43L22.43,4.55L57.9,40.01z"/></svg>