<?xml version="1.0" encoding="UTF-8"?><!DOCTYPE svg PUBLIC "-//W3C//DTD SVG 1.1//EN" "http://www.w3.org/Graphics/SVG/1.1/DTD/svg11.dtd"><svg xmlns="http://www.w3.org/2000/svg" xmlns:xlink="http://www.w3.org/1999/xlink" version="1.1" id="Layer_1" x="0px" y="0px" width="512px" height="512px" viewBox="0 0 512 512" xml:space="preserve"><path fill="#283D5B" d="M346.4 231.4c-3.2-7.2-6.5-14.5-6.5-22.6 0-6.8 3.1-12.4 3.8-18.9.3-2.6.2-4.3-2.6-5-2.8-.6-5.4-.5-8.1.4-5.3 1.7-11.4 5.1-15 9.7-.2 3.5-4.1 6.8-7.7 4-12.7-9.8-31.6-10.1-46.9-9.5-14.4.6-29.8 2.3-43.5 7-.8.3-1.7.4-2.4.3-1.2 0-2.5-.5-3.6-1.5-3.8-3.7-7.7-7.3-11.9-10.5-4.4-3.3-10.1-7.8-15.8-8.1-11.2-.6-4.1 19.8-1.5 28.9 2.1 1.4 3.2 4.2 1.5 6.9-4.8 7.2-13.5 12.8-16.5 21.2-2.9 8.2-2.6 16.7-.6 25.1 1.7 7.6 4.7 14.4 9.5 20.6 3.7 4.8 9.9 12.6 16.9 11.3 1.5-.3 2.8.1 3.8.8 12.8 1.9 23.3 12 26.3 24.6 3.4 14.6-4.9 27.3-18.8 32.1-14.6 5.1-28.1.4-35-13.4-2.3-4.5-3.6-9.8-6.5-14-1.9-2.7-4.3-3.8-7.1-4 2.2 10.8 1 22.9 9.4 31.1 9.5 9.2 22.5 7 34.5 8 9 .8 15.6 5.7 13.8 15.5-1.1 6.2-3.6 12.3-5.7 18.3-2.1 6.1-2.5 11.3-2.6 17.5 1.5.2 3.1.5 4.6.7 29.4 3.7 59.2-1.1 86.4-12.5-.6-1.5-.6-3.3.7-5 1.8-2.4 1.7-6.5 1.6-9.3-.2-4.8-.9-9.7-2.1-14.4-1.9-7.8-4.1-16.4-8.6-23.1-5.3-8-12.9-15.6-14.2-25.5-1.1-8.4 3.4-21.5 13.1-22.4 1.2-.1 2.3.2 3.1.7 9.4-1.2 19-2.8 27.9-6.1 8.5-3.2 15.4-7.6 21.7-14.1 5.4-5.6 9.9-12.6 10.4-20.5.5-8.8-2.3-16.6-5.8-24.3z"/><path fill="#D6E5E5" d="M405.9 222.7c-11-49-51-88.4-98.4-103.1-22.4-6.9-46.3-9.3-69.4-5.1-20.5 3.7-39.1 12.9-56.4 24.3-18.5 12.3-36.1 27-49.3 45.1-9.3 12.8-16.7 28.3-16.2 44.2 0 .1-.1.3-.1.4-.3 5.6-.9 11.1-1.4 16.7-.5.2-.9.3-1.4.4-.6 6.6-1.6 13.3-1.8 20-.2 7-.2 14 .2 21.1.7 13.8 2.5 27.6 6.2 40.9 5.6 19.8 15 38.9 30.3 53 13.9 12.8 31.1 20.6 49.2 24.7v-.7-.7c.1-4.9.5-9.5 2.2-14.5 2-6.2 4.8-12.5 6-18.9.6-3.4.6-3.9-2.8-4.4-5.1-.7-10.4-.3-15.6-.6-6.1-.4-12.4-1.3-17.9-4-5.6-2.8-9.3-6.6-13.1-11.5-8-10.4-5-24-9.6-35.6-.9-2.3.5-5.8 3.1-6.4 10.1-2.3 19.6-.4 24.7 9.4 3.9 7.3 6 18.8 14.6 22.2 11 4.3 27.8-4.4 27-17.2-.7-11.3-9.4-20.2-20.6-21.3-.5 0-.9-.1-1.3-.3-8.4.2-15.8-5.7-21.1-12-6-7.1-10.6-15.1-13-24.1-2.8-10.6-3.7-21.3-.7-31.9 2.7-9.5 10.3-15.4 16.1-22.7-1.4-9.1-5.8-17.7-5.5-27.1.2-7.2 5.3-15.5 13.1-16.2 13.8-1.2 26.4 10.2 36 19.6 14.9-4.6 30.9-6.5 46.4-6.9 14.9-.4 32.3.4 45.7 8 4.8-5.5 12.1-9.5 18.8-11.7 7-2.3 16.7-2.1 21.5 4.3 4.6 6 1.7 14.3-.3 20.7-2.9 9.4.4 17.7 4.3 26.2 4.1 9.1 7.7 19.1 6.7 29.3-1 9.3-5 17.4-11.1 24.4-6.9 7.9-15.1 14.2-25 17.9-11.2 4.2-22.8 6.5-34.6 7.9-.9.1-1.7 0-2.4-.2-1 1.2-2.4 3.9-2.7 4.9-.7 2-.8 4.1-.4 6.2.9 4.6 3.9 8.8 6.6 12.5 4.8 6.6 9 12.9 11.8 20.7 3 8.4 5.4 17.4 6.2 26.3.4 4.4.5 9-.6 13.3 15.7-7.8 30.2-17.9 43-29.8 37.3-34.7 64.7-85.6 53-137.7z"/><path fill="#D6E5E5" d="M477.2 172.1c-21.3-43.4-61.6-77.5-104.2-99-42.7-21.7-92.2-33.1-140.1-25.5C154 60 77.6 117.9 55 195.5c0 .9-.2 1.7-.7 2.6-.4 1.4-.8 2.9-1.1 4.3-.5 1-1 2-1.4 3.1-.1.9-.3 1.9-.4 2.7-.9 4.1-2 8.2-2.7 12.3-1.4 7.7-1.1 15.7-3.8 23-.2 2.1-.5 4.2-.8 6.3v.7c-.5 4.4-.9 8.8-1.3 13.2-.8 9.2-1.2 18.4-1.1 27.6.3 18.1 2.4 36.2 6.9 53.7 8.7 33.3 25.5 64.8 52 87.3 18.2 15.5 39.5 25.7 62.4 32.3 25 7.3 51 11.4 77.1 11.5 51.5.1 103.2-13.9 145.6-43.7 78.4-55.2 137.5-166.8 91.5-260.3zM248.3 418.3c-46.2 4.2-96.9-9.2-123.2-50.1-11.4-17.7-18-38.1-21.1-58.8-1.6-10.8-2.5-21.7-2.5-32.6 0-5.7.1-11.4.4-17.1.4-6.3 1.6-12.5 1.8-18.7.1-2.4 1.6-4.1 3.5-4.8-3.5-21.2 5.1-41.9 17.8-59 15-20.3 35.2-37 56.6-50.2 17.7-10.9 36.5-19.5 57.2-22.8 23-3.7 47.1-1.8 69.4 5.1 46.6 14.5 88.1 49.6 103.6 96.9 33.6 102.4-65.6 203.2-163.5 212.1z"/><path d="M228 38.3c-8.6 1.5-17.1 3.5-25.5 5.9h124.2c-32.1-8.9-65.9-11.6-98.7-5.9z"/><path d="M476.9 151.2c-25.2-40.4-65.9-71.6-108.7-91.6-13.4-6.2-27.3-11.4-41.6-15.4H202.5C130.4 65.3 65.6 121.4 45.1 193.9c-3.3 5.5-3.8 13.1-5.2 19.2-1 4.3-1.7 8.7-2.3 13.1-.1.4-.1.9-.2 1.3-.1.3-.2.5-.2.8-.8 4.2-1.5 8.4-2.1 12.6 0 .1-.1.1-.1.2-.5 1.2-.6 2.3-.4 3.2-1 8.1-1.7 16.2-2.3 24.3-.8 11.4-.9 22.9-.3 34.3 1.3 22.3 5.6 44.5 13.3 65.5 15.3 41.8 45.5 76.5 86.1 95.3 23.1 10.6 48.8 16.7 73.9 20 25.5 3.3 51.5 3.1 77-.6 50.9-7.4 98.5-29.7 136.1-64.8 36.4-33.9 65-77.6 78.1-125.8 13.2-47.9 6.9-98.9-19.6-141.3zm-91.3 281.3c-42.4 29.8-94.1 43.8-145.6 43.7-26-.1-52-4.2-77-11.5-22.9-6.7-44.2-16.8-62.4-32.3-26.5-22.5-43.3-54-52-87.3-4.6-17.5-6.6-35.6-6.9-53.7-.2-9.2.2-18.4 1.1-27.6.4-4.4.8-8.8 1.3-13.2v-.7c.3-2.1.6-4.2.8-6.3 2.7-7.3 2.4-15.4 3.8-23 .8-4.1 1.8-8.2 2.7-12.3.2-.8.3-1.7.4-2.7.4-1 .9-2.1 1.4-3.1.4-1.4.7-2.9 1.1-4.3.5-.9.8-1.8.7-2.6 22.6-77.7 99-135.6 177.9-148 47.9-7.6 97.3 3.8 140.1 25.5 42.6 21.5 82.8 55.7 104.2 99 46 93.5-13.1 205.1-91.6 260.4z"/><path fill="#010101" d="M411.7 206.3c-15.6-47.3-57-82.4-103.6-96.9-22.3-6.9-46.3-8.8-69.4-5.1-20.7 3.3-39.5 11.8-57.2 22.8-21.4 13.2-41.5 30-56.6 50.2-12.7 17.1-21.3 37.8-17.8 59-1.8.7-3.4 2.3-3.5 4.8-.2 6.2-1.5 12.5-1.8 18.7-.3 5.7-.4 11.4-.4 17.1.1 10.9.9 21.8 2.5 32.6 3.1 20.7 9.7 41.1 21.1 58.8 26.3 40.8 77 54.2 123.2 50.1 98-9 197.2-109.8 163.5-212.1zm-112.5 184c-1.3 1.7-1.3 3.5-.7 5-27.2 11.4-57 16.2-86.4 12.5-1.5-.2-3.1-.4-4.6-.7.1-6.2.5-11.4 2.6-17.5 2-6 4.5-12.1 5.7-18.3 1.8-9.8-4.9-14.7-13.8-15.5-12.1-1-25 1.1-34.5-8-8.5-8.1-7.2-20.3-9.4-31.1 2.8.1 5.2 1.2 7.1 4 2.9 4.2 4.3 9.4 6.5 14 6.9 13.9 20.4 18.5 35 13.4 13.8-4.8 22.2-17.5 18.8-32.1-3-12.6-13.5-22.7-26.3-24.6-1-.7-2.2-1.1-3.8-.8-7 1.3-13.1-6.5-16.9-11.3-4.8-6.2-7.7-13-9.5-20.6-1.9-8.4-2.3-16.9.6-25.1 3-8.4 11.7-13.9 16.5-21.2 1.8-2.7.6-5.5-1.5-6.9-2.6-9.2-9.7-29.5 1.5-28.9 5.8.3 11.5 4.8 15.8 8.1 4.2 3.2 8.2 6.8 11.9 10.5 1.1 1.1 2.3 1.5 3.6 1.5.8.1 1.6 0 2.4-.3 13.7-4.7 29.1-6.5 43.5-7 15.3-.6 34.2-.3 46.9 9.5 3.6 2.8 7.5-.5 7.7-4 3.6-4.6 9.6-8 15-9.7 2.8-.9 5.3-1 8.1-.4 2.9.6 2.9 2.4 2.6 5-.7 6.5-3.8 12.1-3.8 18.9 0 8 3.2 15.4 6.5 22.6 3.5 7.7 6.3 15.6 5.7 24.1-.5 8-5 14.9-10.4 20.5-6.3 6.5-13.2 11-21.7 14.1-8.9 3.3-18.5 5-27.9 6.1-.8-.5-1.8-.8-3.1-.7-9.7.9-14.2 14-13.1 22.4 1.3 9.9 8.9 17.5 14.2 25.5 4.5 6.7 6.7 15.3 8.6 23.1 1.1 4.7 1.8 9.5 2.1 14.4.3 3 .4 7.1-1.5 9.5zm53.8-30c-12.8 11.9-27.4 22-43 29.8 1.1-4.3 1-8.9.6-13.3-.8-8.9-3.2-17.9-6.2-26.3-2.8-7.8-7-14-11.8-20.7-2.7-3.8-5.7-7.9-6.6-12.5-.4-2.1-.3-4.2.4-6.2.3-1 1.7-3.7 2.7-4.9.7.2 1.5.4 2.4.2 11.8-1.4 23.4-3.7 34.6-7.9 9.9-3.7 18-10 25-17.9 6.1-7 10.2-15.1 11.1-24.4 1-10.2-2.6-20.2-6.7-29.3-3.8-8.6-7.2-16.8-4.3-26.2 2-6.4 4.9-14.7.3-20.7-4.8-6.4-14.5-6.6-21.5-4.3-6.7 2.2-14 6.2-18.8 11.7-13.4-7.7-30.8-8.4-45.7-8-15.5.4-31.5 2.2-46.4 6.9-9.6-9.4-22.2-20.8-36-19.6-7.8.7-12.9 9.1-13.1 16.2-.3 9.3 4.1 18 5.5 27.1-5.8 7.3-13.4 13.3-16.1 22.7-3 10.6-2.1 21.3.7 31.9 2.4 9 7 17 13 24.1 5.3 6.3 12.7 12.2 21.1 12 .4.1.8.2 1.3.3 11.2 1.1 19.9 9.9 20.6 21.3.8 12.7-16.1 21.4-27 17.2-8.6-3.4-10.8-14.8-14.6-22.2-5.1-9.8-14.6-11.7-24.7-9.4-2.6.6-4 4-3.1 6.4 4.6 11.6 1.5 25.2 9.6 35.6 3.8 4.9 7.5 8.7 13.1 11.5 5.5 2.7 11.8 3.6 17.9 4 5.2.3 10.4-.1 15.6.6 3.4.5 3.4 1 2.8 4.4-1.2 6.4-4 12.7-6 18.9-1.6 5-2.1 9.6-2.2 14.5v1.4c-18.2-4.1-35.3-11.9-49.2-24.7-15.3-14.1-24.8-33.2-30.3-53-3.7-13.3-5.5-27.1-6.2-40.9-.4-7-.4-14-.2-21.1.2-6.7 1.2-13.3 1.8-20 .5-.1 1-.2 1.4-.4.5-5.6 1.1-11.1 1.4-16.7 0-.1 0-.3.1-.4-.5-15.9 6.9-31.3 16.2-44.2 13.1-18.1 30.7-32.8 49.3-45.1 17.2-11.4 35.9-20.6 56.4-24.3 23.2-4.2 47-1.8 69.4 5.1C355 134.2 395 173.6 406 222.6c11.6 52.2-15.8 103.1-53 137.7z"/><metadata><rdf:RDF xmlns:rdf="http://www.w3.org/1999/02/22-rdf-syntax-ns#" xmlns:rdfs="http://www.w3.org/2000/01/rdf-schema#" xmlns:dc="http://purl.org/dc/elements/1.1/"><rdf:Description about="https://iconscout.com/legal#licenses" dc:title="github" dc:description="github" dc:publisher="Iconscout" dc:date="2018-05-05" dc:format="image/svg+xml" dc:language="en"><dc:creator><rdf:Bag><rdf:li>Roundicons.com</rdf:li></rdf:Bag></dc:creator></rdf:Description></rdf:RDF></metadata></svg>