<svg xmlns="http://www.w3.org/2000/svg" xmlns:xlink="http://www.w3.org/1999/xlink" data-name="Layer 1" viewBox="0 0 512 512"><defs><linearGradient id="a" x1="206.644" x2="206.644" y1="22" y2="494.424" gradientUnits="userSpaceOnUse"><stop offset="0" stop-color="#00efd1"/><stop offset="1" stop-color="#00acea"/></linearGradient><linearGradient id="b" x1="255.981" x2="255.981" y1="22" y2="494.424" xlink:href="#a"/><linearGradient id="c" x1="204.92" x2="204.92" y1="22" y2="494.424" xlink:href="#a"/><linearGradient id="d" x1="205" x2="205" y1="22" y2="494.424" xlink:href="#a"/></defs><g data-name="&lt;Group&gt;"><path fill="url(#a)" d="M206.644,42.771c-90.352,0-163.859,73.475-163.859,163.788s73.507,163.788,163.859,163.788S370.5,296.872,370.5,206.559,297,42.771,206.644,42.771Zm0,311.576c-81.53,0-147.859-66.3-147.859-147.788S125.114,58.771,206.644,58.771,354.5,125.068,354.5,206.559,288.174,354.347,206.644,354.347Z" data-name="&lt;Compound Path&gt;"/><path fill="url(#b)" d="M407.563,349.981a8,8,0,0,0-11.311,0l-17.4,17.394-28.3-28.287a194.9,194.9,0,0,0,51.869-132.529c0-107.9-87.825-195.692-195.777-195.692S10.867,98.654,10.867,206.559,98.692,402.25,206.644,402.25A195.076,195.076,0,0,0,339.235,350.4l28.3,28.287L349.92,396.294a8,8,0,0,0,0,11.316L431.6,489.252a40.711,40.711,0,0,0,57.546-.026q.8-.783,1.549-1.611c14.44-15.9,13.744-41.059-1.5-56.036ZM206.644,386.25c-99.129,0-179.777-80.609-179.777-179.691S107.515,26.867,206.644,26.867s179.777,80.61,179.777,179.692S305.773,386.25,206.644,386.25Zm272.21,90.609c-.3.327-.6.646-.951.988a24.81,24.81,0,0,1-35.034.044l-75.977-75.939,35.016-35,76.029,75.994A24.7,24.7,0,0,1,478.854,476.859Z" data-name="&lt;Compound Path&gt;"/><path fill="url(#c)" d="M205.735,120.473A51.975,51.975,0,0,0,153,172.307V180h16v-7.693a35.91,35.91,0,1,1,47.145,34.071A27.9,27.9,0,0,0,197,233.048V259h16V233.048a11.948,11.948,0,0,1,8.129-11.463,51.845,51.845,0,0,0-15.394-101.112Z" data-name="&lt;Path&gt;"/><rect width="16" height="24" x="197" y="269" fill="url(#d)" data-name="&lt;Path&gt;"/></g></svg>