<svg xmlns="http://www.w3.org/2000/svg" data-name="Layer 1" viewBox="0 0 168 168"><circle cx="2" cy="150" r="2" fill="#2d4356"/><path fill="#2d4356" d="M11 148H8a2 2 0 0 0 0 4h3a2 2 0 0 0 0-4zM160 148h-3a2 2 0 0 0 0 4h3a2 2 0 0 0 0-4z"/><circle cx="166" cy="150" r="2" fill="#2d4356"/><path fill="#0bceb2" d="M118.15387 156h-8.30774a2.00641 2.00641 0 0 0 0 4h8.30774a2.00641 2.00641 0 0 0 0-4zM58.15387 156H49.84613a2.00641 2.00641 0 0 0 0 4h8.30774a2.00641 2.00641 0 0 0 0-4zM104 156H64a2 2 0 0 0 0 4H79.94v2H72a2 2 0 0 0 0 4H97a2 2 0 0 0 0-4H88.06v-2H104a2 2 0 0 0 0-4zM49 50h4V44H67V32H49zm4-14H63v4H53zM90 50h4V44h15V32H90zm4-14h11v4H94z"/><polygon fill="#0bceb2" points="75 32 71 32 71 50 75 50 75 42 82 42 82 50 86 50 86 38 75 38 75 32"/><path fill="#2d4356" d="M72,98v30a5.00565,5.00565,0,0,0,5,5h54a5.00565,5.00565,0,0,0,5-5V98a5.00565,5.00565,0,0,0-5-5H77A5.00565,5.00565,0,0,0,72,98Zm60,0v30a1,1,0,0,1-1,1H77a1,1,0,0,1-1-1V98a1,1,0,0,1,1-1h54A1,1,0,0,1,132,98Z"/><path fill="#0bceb2" d="M90.793 124.35889a1.99987 1.99987 0 1 0 2.93457-2.71777L85.72559 113l8.002-8.64111a1.99987 1.99987 0 1 0-2.93457-2.71777l-9.26025 10a1.99919 1.99919 0 0 0 0 2.71777zM114.38086 124.46729a1.99957 1.99957 0 0 0 2.82617-.1084l9.26025-10a1.99919 1.99919 0 0 0 0-2.71777l-9.26025-10a1.99987 1.99987 0 1 0-2.93457 2.71777L122.27441 113l-8.002 8.64111A1.9997 1.9997 0 0 0 114.38086 124.46729z"/><path fill="#2d4356" d="M101.0127 105.40234a5.16546 5.16546 0 0 1 2.6665-.70215c1.5874 0 2.46191.68457 2.46191 1.92773 0 1.04395-.58545 1.91162-1.82373 3.35693a7.301 7.301 0 0 0-1.99512 5.3252l.02637.668a1.99985 1.99985 0 0 0 1.99707 1.9209q.04028 0 .08057-.00146a2.00012 2.00012 0 0 0 1.91943-2.07764l-.02832-.70605a3.342 3.342 0 0 1 1.04492-2.53564c1.46436-1.709 2.77881-3.4502 2.77881-5.9502 0-2.855-2.022-5.92773-6.46191-5.92773a9.04678 9.04678 0 0 0-4.97412 1.43555 1.99974 1.99974 0 0 0 2.30762 3.2666zM105 121.2998h-1a2 2 0 0 0 0 4h1a2 2 0 0 0 0-4z"/><path fill="#2d4356" d="M150.72131 148H124.91754A7.94058 7.94058 0 0 0 126 144v-7h-4v7a4 4 0 0 1-4 4H40a4 4 0 0 1-4-4V58h86V89h4V32a8.009 8.009 0 0 0-8-8H40a8.009 8.009 0 0 0-8 8V144a7.94058 7.94058 0 0 0 1.08246 4H17.27869a2.017 2.017 0 1 0 0 4H150.72131a2.017 2.017 0 1 0 0-4zM36 32a4 4 0 0 1 4-4h78a4 4 0 0 1 4 4V54H36zM68.30471 8a3 3 0 1 0-3-3A3.00344 3.00344 0 0 0 68.30471 8zm0-4.5a1.5 1.5 0 1 1-1.5 1.5A1.50148 1.50148 0 0 1 68.30471 3.5zM161.30471 52a2 2 0 1 0 2 2A2.00229 2.00229 0 0 0 161.30471 52zm0 3a1 1 0 1 1 1-1A1.001 1.001 0 0 1 161.30471 55zM130.30471 2a2 2 0 1 0 2 2A2.00229 2.00229 0 0 0 130.30471 2zm0 3a1 1 0 1 1 1-1A1.001 1.001 0 0 1 130.30471 5zM134.30471 44a2 2 0 1 0 2 2A2.00229 2.00229 0 0 0 134.30471 44zm0 3a1 1 0 1 1 1-1A1.001 1.001 0 0 1 134.30471 47zM11.30471 47a2 2 0 1 0-2 2A2.00229 2.00229 0 0 0 11.30471 47zm-3 0a1 1 0 1 1 1 1A1.001 1.001 0 0 1 8.30471 47z"/><polygon fill="#0bceb2" points="23.888 24.011 25.375 22.056 24.436 21.524 23.481 23.714 23.45 23.714 22.48 21.539 21.525 22.087 22.996 23.996 22.996 24.027 20.695 23.73 20.695 24.794 23.011 24.497 23.011 24.528 21.525 26.436 22.416 27 23.434 24.794 23.465 24.794 24.404 26.984 25.39 26.421 23.888 24.543 23.888 24.512 26.25 24.794 26.25 23.73 23.888 24.042 23.888 24.011"/><polygon fill="#0bceb2" points="6.081 4.067 5.225 5.166 5.739 5.49 6.325 4.22 6.342 4.22 6.883 5.481 7.451 5.157 6.586 4.075 6.586 4.057 7.946 4.22 7.946 3.607 6.586 3.787 6.586 3.769 7.442 2.643 6.902 2.337 6.352 3.598 6.334 3.598 5.775 2.345 5.225 2.661 6.072 3.76 6.072 3.778 4.747 3.607 4.747 4.22 6.081 4.049 6.081 4.067"/><polygon fill="#0bceb2" points="164.305 22.713 164.305 21.67 161.988 21.977 161.988 21.946 163.446 20.028 162.525 19.506 161.589 21.654 161.558 21.654 160.607 19.521 159.67 20.059 161.113 21.931 161.113 21.962 158.856 21.67 158.856 22.713 161.128 22.422 161.128 22.453 159.67 24.325 160.545 24.878 161.543 22.713 161.573 22.713 162.494 24.862 163.461 24.31 161.988 22.468 161.988 22.437 164.305 22.713"/><polygon fill="#0bceb2" points="94.748 16.586 96.006 14.931 95.211 14.481 94.404 16.334 94.377 16.334 93.557 14.494 92.748 14.958 93.993 16.573 93.993 16.599 92.047 16.348 92.047 17.248 94.006 16.996 94.006 17.023 92.748 18.638 93.503 19.115 94.364 17.248 94.39 17.248 95.185 19.101 96.019 18.625 94.748 17.036 94.748 17.009 96.746 17.248 96.746 16.348 94.748 16.612 94.748 16.586"/></svg>