<svg xmlns="http://www.w3.org/2000/svg" fill-rule="evenodd" stroke-linecap="round" stroke-linejoin="round" stroke-miterlimit="1.5" clip-rule="evenodd" viewBox="0 0 250 250"><ellipse cx="153.89" cy="133.566" fill="#74d1ea" rx="115.385" ry="111.888" transform="matrix(1.04433 0 0 1.07697 -35.712 -18.847)"/><path fill-opacity=".25" d="M183.758,19.792C220.584,40.419 245.5,79.823 245.5,125C245.5,170.177 220.584,209.581 183.758,230.208C215.357,208.346 236.409,169.384 236.409,125C236.409,80.616 215.357,41.654 183.758,19.792Z"/><path fill="#fff" fill-opacity=".25" d="M66.242,19.792C34.643,41.654 13.591,80.616 13.591,125C13.591,169.384 34.643,208.346 66.242,230.208C29.416,209.581 4.5,170.177 4.5,125C4.5,79.823 29.416,40.419 66.242,19.792Z"/><ellipse cx="153.89" cy="133.566" fill="none" stroke="#000" stroke-width="4.71" rx="115.385" ry="111.888" transform="matrix(1.04433 0 0 1.07697 -35.712 -18.847)"/><path fill="#fff" stroke="#000" stroke-width="7.17" d="M124.93,35.962C149.766,35.962 169.93,67.337 169.93,105.983C169.93,144.629 149.766,176.004 124.93,176.004C100.094,176.004 79.93,144.629 79.93,105.983C79.93,67.337 100.094,35.962 124.93,35.962ZM125,55.303C140.454,55.303 153,77.963 153,105.874C153,133.785 140.454,156.445 125,156.445C109.546,156.445 97,133.785 97,105.874C97,77.963 109.546,55.303 125,55.303Z" transform="matrix(1 0 0 .95256 .07 -1.787)"/><path fill="#fff" stroke="#000" stroke-width="7.11" d="M183.96,110.594C183.96,104.554 179.183,99.65 173.299,99.65L74.341,99.65C68.457,99.65 63.68,104.554 63.68,110.594L63.68,198.147C63.68,204.187 68.457,209.091 74.341,209.091L173.299,209.091C179.183,209.091 183.96,204.187 183.96,198.147L183.96,110.594Z" transform="matrix(.99767 0 0 .97188 1.468 2.32)"/></svg>